<svg width="114" height="148" viewBox="0 0 114 148" fill="none" xmlns="http://www.w3.org/2000/svg">
<g filter="url(#filter0_d_908_8)">
<path d="M3 14C3 11.2386 5.23858 9 8 9H102C104.761 9 107 11.2386 107 14V134.07C107 138.76 101.041 140.894 97.8945 137.416C65.7591 101.903 44.3644 99.8925 12.2645 136.701C9.13525 140.29 3 138.185 3 133.424V14Z" fill="#47B88C"/>
<path d="M8 11H102C103.657 11 105 12.3431 105 14V134.07C105 136.791 101.391 138.299 99.3774 136.074C83.2845 118.29 69.3999 108.302 55.1171 107.939C40.7756 107.573 26.8654 116.916 10.7572 135.387C8.73035 137.711 5 136.167 5 133.424V14C5 12.3431 6.34315 11 8 11Z" stroke="#F5F5F5" stroke-width="4"/>
</g>
<rect x="2" width="105" height="7" rx="3.5" fill="#47B88C"/>
<defs>
<filter id="filter0_d_908_8" x="0" y="5" width="114" height="140.138" filterUnits="userSpaceOnUse" color-interpolation-filters="sRGB">
<feFlood flood-opacity="0" result="BackgroundImageFix"/>
<feColorMatrix in="SourceAlpha" type="matrix" values="0 0 0 0 0 0 0 0 0 0 0 0 0 0 0 0 0 0 127 0" result="hardAlpha"/>
<feOffset dx="2" dy="1"/>
<feGaussianBlur stdDeviation="2.5"/>
<feComposite in2="hardAlpha" operator="out"/>
<feColorMatrix type="matrix" values="0 0 0 0 1 0 0 0 0 1 0 0 0 0 1 0 0 0 0.5 0"/>
<feBlend mode="normal" in2="BackgroundImageFix" result="effect1_dropShadow_908_8"/>
<feBlend mode="normal" in="SourceGraphic" in2="effect1_dropShadow_908_8" result="shape"/>
</filter>
</defs>
</svg>
